PathFileType	4	(X/Y/Z)	./resultDataOpenSim/trcMotMarkerGrf/sub10/qtm-02-06.trc
DataRate	CameraRate	NumFrames	NumMarkers	Units	OrigDataRate	OrigDataStartFrame	OrigNumFrames
250.000000	250.000000	8	24	m	250.000000	274	546
Frame#	Time	L.Toe.Tip			R.Toe.Tip			L.Ankle.Lat			R.Ankle.Lat			L.Ankle.Med			R.Ankle.Med			L.Heel			R.Heel			L.Knee.Lat			R.Knee.Lat			L.Knee.Med			R.Knee.Med			L.Thigh.Upper			R.Thigh.Upper			L.ASIS			R.ASIS			V.Sacral			L.Acromium			R.Acromium			C7			L.Elbow			R.Elbow			L.Wrist.Lat			R.Wrist.Lat
		X1	Y1	Z1	X2	Y2	Z2	X3	Y3	Z3	X4	Y4	Z4	X5	Y5	Z5	X6	Y6	Z6	X7	Y7	Z7	X8	Y8	Z8	X9	Y9	Z9	X10	Y10	Z10	X11	Y11	Z11	X12	Y12	Z12	X13	Y13	Z13	X14	Y14	Z14	X15	Y15	Z15	X16	Y16	Z16	X17	Y17	Z17	X18	Y18	Z18	X19	Y19	Z19	X20	Y20	Z20	X21	Y21	Z21	X22	Y22	Z22	X23	Y23	Z23	X24	Y24	Z24

274	1.092	0.022327411	0.0176728	-0.055488469	0.17905379	0.063048799	0.12482599	-0.10965997	0.041922524	-0.095986712	0.044334611	0.11328344	0.1083267	-0.11248053	0.065102248	-0.012595505	0.10181931	0.13026157	0.041526624	-0.17878769	0.013245533	-0.059756298	0.013328654	0.095440314	0.044609086	-0.037201396	0.42250064	-0.13135067	0.1740481	0.48018449	0.16501306	-0.049942467	0.40355986	-0.0078255625	0.23491881	0.49320993	0.049567186	0.0058423591	0.81576823	-0.19471669	-0.0046674995	0.84365856	0.18501404	0.057547801	0.92883103	-0.13269234	0.061703518	0.94136676	0.10995	-0.14980627	0.94375996	0.0088005674	-0.0060205432	1.4039143	-0.15736442	-0.041356217	1.3934751	0.16676325	-0.10754389	1.4256408	-0.010595011	-0.072445477	1.0692782	-0.23205103	-0.14086378	1.0580684	0.19599782	0.10249658	0.88298164	-0.26723904	-0.023273097	0.84916774	0.25591536
275	1.096	0.022340214	0.01767425	-0.055614399	0.19808159	0.06312752	0.12728328	-0.10965984	0.041946482	-0.095930245	0.061973434	0.10905801	0.11001085	-0.11233034	0.065183014	-0.012496324	0.11921615	0.1273221	0.043294798	-0.17895823	0.013423934	-0.05946725	0.031706662	0.089831165	0.046186564	-0.036618703	0.42241847	-0.13140028	0.18142783	0.48066893	0.16521601	-0.048643119	0.40325184	-0.0080122326	0.24128452	0.494097	0.049711062	0.0086233451	0.81529266	-0.19453843	0.0016266845	0.8439555	0.18567404	0.061381606	0.92814017	-0.13294528	0.067101347	0.94112953	0.10984747	-0.14478106	0.9433896	0.009975025	-0.0010266646	1.4036296	-0.1571933	-0.036200015	1.3930237	0.16699794	-0.10244626	1.4253543	-0.010286784	-0.065517603	1.0683353	-0.2312571	-0.13750717	1.0583437	0.19619113	0.11183978	0.88391793	-0.2656607	-0.022162175	0.84859484	0.2575581
276	1.1	0.022364186	0.01767482	-0.055749162	0.21707054	0.063408752	0.12979776	-0.10971529	0.041955651	-0.095838712	0.079704468	0.10499033	0.11177817	-0.11213393	0.065272128	-0.012211819	0.13667866	0.12453018	0.045114883	-0.17909827	0.013577468	-0.059189685	0.050226813	0.084395178	0.047846116	-0.035938138	0.42231093	-0.13142869	0.18869051	0.48097102	0.16541955	-0.047222237	0.40289104	-0.0081964612	0.24749033	0.49480124	0.049824642	0.011449618	0.81479186	-0.19423392	0.0081475523	0.84425388	0.18645279	0.065243291	0.92743247	-0.13315429	0.072499253	0.94083794	0.10980005	-0.13995338	0.94305482	0.011336218	0.0039669143	1.4032931	-0.15702342	-0.031111995	1.392482	0.16724905	-0.097378767	1.4250354	-0.0099581847	-0.058536476	1.0672482	-0.23088051	-0.13416811	1.0585809	0.19641517	0.12115153	0.88485383	-0.26405457	-0.020975641	0.84800522	0.25916744
277	1.104	0.022359253	0.017658321	-0.055846092	0.23601553	0.063909281	0.13235627	-0.10995365	0.041967293	-0.095637621	0.097503834	0.10108191	0.11359338	-0.11196315	0.065360837	-0.011838958	0.15412761	0.121906	0.046930318	-0.17918432	0.013687418	-0.058940539	0.068868133	0.079165447	0.049579117	-0.035154267	0.42217382	-0.13142962	0.19582458	0.48106087	0.16559817	-0.045847223	0.40251674	-0.0082966041	0.25353082	0.49531554	0.049899626	0.014341428	0.81426631	-0.19385952	0.014534585	0.84443728	0.18717985	0.069149091	0.92671848	-0.13330952	0.077905241	0.9404973	0.10980769	-0.13521005	0.94269537	0.012757143	0.0089526586	1.4029057	-0.15686649	-0.026029747	1.3918771	0.16749995	-0.092312555	1.4246727	-0.0096181056	-0.050404861	1.0656434	-0.23167143	-0.13089277	1.058782	0.19666543	0.13043534	0.88578716	-0.26241385	-0.019793886	0.84737752	0.26070925
278	1.108	0.022304719	0.017619815	-0.055882518	0.25490679	0.064630957	0.13493192	-0.11034282	0.042009404	-0.09535804	0.11537821	0.097347103	0.11544578	-0.11184778	0.06540571	-0.011577518	0.17151219	0.11949194	0.048731772	-0.17923605	0.013769369	-0.058701894	0.0875951	0.074177563	0.051411595	-0.034260793	0.42200646	-0.13139757	0.20283728	0.48099944	0.16576954	-0.044559868	0.40215725	-0.0082872458	0.25939852	0.49564096	0.049944502	0.017288576	0.81372129	-0.19351848	0.020635694	0.84444593	0.18778261	0.073093474	0.92600142	-0.13340702	0.083309605	0.94011184	0.10987155	-0.13011934	0.94209273	0.013775652	0.013927679	1.4024679	-0.15672878	-0.020894749	1.391235	0.16774362	-0.087225394	1.4242525	-0.0092769133	-0.040331749	1.063348	-0.23426019	-0.1277103	1.0589481	0.19692837	0.13968903	0.88671706	-0.26073622	-0.018722891	0.84670732	0.2621557
279	1.112	0.022233489	0.017576557	-0.055896317	0.27372536	0.065553699	0.13748977	-0.11065192	0.042088745	-0.095149663	0.13333394	0.093796488	0.11732627	-0.11177475	0.065378976	-0.011526893	0.18883917	0.11730593	0.050543303	-0.17927773	0.013845313	-0.058455605	0.10638179	0.069467638	0.053344988	-0.03325059	0.42181273	-0.13133124	0.20972687	0.48087027	0.16597434	-0.043280758	0.40182923	-0.008194782	0.26509461	0.49578414	0.049978267	0.020269669	0.81317029	-0.19326333	0.026527115	0.84429924	0.18829522	0.07704954	0.92527417	-0.13345179	0.08870861	0.93968419	0.1099911	-0.12397481	0.94086469	0.013643046	0.018902012	1.4019803	-0.1565966	-0.015704143	1.3905557	0.16798616	-0.082109054	1.4237635	-0.0089391331	-0.028863406	1.060658	-0.23809039	-0.124568	1.0590731	0.19719219	0.14891223	0.88764339	-0.25902331	-0.017753008	0.84601654	0.26351814
280	1.116	0.022184592	0.017545446	-0.055928678	0.29244384	0.066650873	0.13999542	-0.11073242	0.042195103	-0.095092623	0.15135096	0.090446245	0.11921796	-0.11168668	0.065297887	-0.011575037	0.20613703	0.11533166	0.052389543	-0.17931909	0.013930575	-0.058198671	0.12521282	0.065059219	0.05534338	-0.032117346	0.42159958	-0.13123194	0.21645898	0.48066594	0.16621928	-0.041922858	0.4015362	-0.0080480236	0.27062693	0.49574922	0.050018316	0.023266528	0.81262755	-0.19309145	0.032325661	0.84404234	0.18877113	0.080972758	0.92451997	-0.13346512	0.09411133	0.93921554	0.11016505	-0.11577283	0.93851766	0.011423899	0.023895127	1.4014393	-0.15644292	-0.010475025	1.3898313	0.16823203	-0.076947558	1.4231971	-0.0086090743	-0.01761599	1.0580681	-0.24154426	-0.12133576	1.0591451	0.19747402	0.1581069	0.88856559	-0.25728143	-0.016804191	0.84532415	0.2648244
281	1.12	0.02215309	0.017524435	-0.055972234	0.31103521	0.067909548	0.14242146	-0.11066233	0.042310811	-0.095105478	0.16938614	0.087322985	0.12112599	-0.11152024	0.065203644	-0.011528219	0.22339897	0.11356509	0.054284602	-0.17936113	0.014033386	-0.057936418	0.14406462	0.06095963	0.057367752	-0.030853488	0.421373	-0.13110002	0.22301653	0.48031145	0.16649981	-0.040434086	0.401262	-0.0078570879	0.27600564	0.49553528	0.050072887	0.026314969	0.81210206	-0.1929503	0.038083058	0.84370371	0.1892322	0.084844783	0.92373327	-0.13346317	0.099525897	0.93870413	0.11039074	-0.10499387	0.93489377	0.0068639986	0.028917283	1.40084	-0.15625854	-0.0052180927	1.3890557	0.16848077	-0.071747286	1.4225605	-0.0082884877	-0.0077483835	1.0558344	-0.24350388	-0.11792267	1.0591561	0.1977985	0.16727535	0.8894836	-0.25551624	-0.01580242	0.84462895	0.26609782
